<svg xmlns="http://www.w3.org/2000/svg" viewBox="0 0 24 24" fill="currentColor">
  <path d="M12 3c.46 0 .93.04 1.4.14 2.76.53 4.96 2.76 5.48 5.52.1.47.14.94.14 1.4-.01 5.51-4.49 10-10.01 10-.46 0-.93-.04-1.4-.13-2.76-.54-4.96-2.76-5.48-5.52-.1-.46-.14-.93-.14-1.4 0-5.52 4.48-10.01 10-10.01M12 1C5.93 1 1.01 5.93 1.01 12c0 .69.07 1.36.2 2 .54 3.53 3.28 6.32 6.81 6.81.64.13 1.31.19 2 .19 6.07 0 10.99-4.92 10.99-10.99 0-.68-.06-1.35-.2-1.99-3.53-.54-6.32-3.28-6.81-6.81-.13-.64-.19-1.31-.19-2z"/>
  <path d="M12 7c-2.76 0-5 2.24-5 5s2.24 5 5 5 5-2.24 5-5-2.24-5-5-5zm0 8c-1.65 0-3-1.35-3-3s1.35-3 3-3 3 1.35 3 3-1.35 3-3 3z"/>
</svg>